<?xml version="1.0" encoding="utf-8"?>
<!-- Generator: Adobe Illustrator 26.5.0, SVG Export Plug-In . SVG Version: 6.00 Build 0)  -->
<svg version="1.1" id="Layer_1" xmlns="http://www.w3.org/2000/svg" xmlns:xlink="http://www.w3.org/1999/xlink" x="0px" y="0px"
	 width="534px" height="529px" viewBox="0 0 534 529" style="enable-background:new 0 0 534 529;" xml:space="preserve">
<style type="text/css">
	.st0{fill:#636363;}
</style>
<g>
	<path class="st0" d="M225.3,165.3c2.4-11.3,9.3-21.3,19-27.6s21.6-8.5,32.9-6c11.3,2.4,21.3,9.3,27.6,19c6.3,9.7,8.5,21.6,6,32.9
		c-2.4,11.3-9.3,21.3-19,27.6s-21.6,8.5-32.9,6c-11.3-2.4-21.3-9.3-27.6-19C225.1,188.5,222.9,176.7,225.3,165.3z M208.5,188.5
		c-2.1-8.8-2.2-18-0.3-26.9c1.9-9.1,5.9-17.6,11.7-24.8l-56.5-14.6l-20.7,50.9L208.5,188.5z M460.6,402h-26.2v52.5h70V402h-26.3V253
		l32,7.7l11.7-51.2l-193.5-46.4c1.5,8,1.4,16.3-0.3,24.2c-2.1,9.8-6.6,19-13.1,26.6l145.8,34.9L460.6,402z M58.1,298.4v112.3H40.6
		v43.8h52.5v-43.8H75.6V288.2c-0.1-0.7-0.2-1.3-0.4-2l50.2-117.1l20.2-47.2L128.1,8.2c0,0-84.2,35.9-105,113.8
		C-4.5,225.2,38.6,279.9,58.1,298.4L58.1,298.4z M362.5,472h159.4v43.7H14.4V472h159.4l58.9-247.5c4.9,3.5,10.4,6.2,16.1,8.1
		l-1.3,5.2v0.1c0.4,0.3,20.7,24.8,20.7,24.8s20.3-24.4,20.7-24.8v-0.1l-1.2-5.3l0,0c5.7-1.9,11.1-4.6,16-8.1L362.5,472z
		 M279.4,276.6l26.2,32L293.8,259L279.4,276.6z M230.7,308.5l26.1-31.9l-14.3-17.5L230.7,308.5z M227.4,340.2l40.7,40.7l40.7-40.7
		l-40.7-49.8L227.4,340.2z M196.3,452.6l59.4-59.4l-36.5-36.5l0,0L196.3,452.6L196.3,452.6z M334.5,472l-66.4-66.4L201.7,472H334.5z
		 M339.9,452.6L339.9,452.6l-22.8-96l0,0l-36.6,36.6L339.9,452.6z"/>
</g>
</svg>
