<?xml version="1.0" encoding="utf-8"?>
<!-- Generator: Adobe Illustrator 26.5.0, SVG Export Plug-In . SVG Version: 6.00 Build 0)  -->
<svg version="1.1" id="Layer_1" xmlns="http://www.w3.org/2000/svg" xmlns:xlink="http://www.w3.org/1999/xlink" x="0px" y="0px"
	 width="700px" height="700px" viewBox="0 0 700 700" style="enable-background:new 0 0 700 700;" xml:space="preserve">
<path d="M307.2,183.3c2.4-11.3,9.3-21.3,19-27.6c9.7-6.3,21.6-8.5,32.9-6c11.3,2.4,21.3,9.3,27.6,19c6.3,9.7,8.5,21.6,6,32.9
	c-2.4,11.3-9.3,21.3-19,27.6c-9.7,6.3-21.6,8.5-32.9,6c-11.3-2.4-21.3-9.3-27.6-19C307,206.5,304.8,194.7,307.2,183.3z M290.4,206.5
	c-2.1-8.8-2.2-18-0.3-26.9c1.9-9.1,5.9-17.6,11.7-24.8l-56.5-14.6l-20.7,50.9L290.4,206.5z M542.5,420h-26.2v52.5h70V420H560V271
	l32,7.7l11.7-51.2l-193.5-46.4c1.5,8,1.4,16.3-0.3,24.2c-2.1,9.8-6.6,19-13.1,26.6l145.8,34.9L542.5,420z M140,316.4v112.3h-17.5
	v43.8H175v-43.8h-17.5V306.2c-0.1-0.7-0.2-1.3-0.4-2l50.2-117.1l20.2-47.2L210,26.2c0,0-84.2,35.9-105,113.8
	C77.4,243.2,120.5,297.9,140,316.4L140,316.4z M444.4,490h159.4v43.7H96.3V490h159.4l58.9-247.5c4.9,3.5,10.4,6.2,16.1,8.1l-1.3,5.2
	l0,0.1c0.4,0.3,20.7,24.8,20.7,24.8s20.3-24.4,20.7-24.8l0-0.1l-1.2-5.3l0,0c5.7-1.9,11.1-4.6,16-8.1L444.4,490z M361.3,294.6
	l26.2,32L375.7,277L361.3,294.6z M312.6,326.5l26.1-31.9l-14.3-17.5L312.6,326.5z M309.3,358.2l40.7,40.7l40.7-40.7L350,308.4
	L309.3,358.2z M278.2,470.6l59.4-59.4l-36.5-36.5l0,0L278.2,470.6L278.2,470.6z M416.4,490L350,423.6L283.6,490H416.4z M421.8,470.6
	L421.8,470.6l-22.8-96l0,0l-36.6,36.6L421.8,470.6z"/>
</svg>
